<?xml version="1.0" encoding="UTF-8" standalone="no" ?>
<!DOCTYPE svg PUBLIC "-//W3C//DTD SVG 1.1//EN" "http://www.w3.org/Graphics/SVG/1.1/DTD/svg11.dtd">
<svg xmlns="http://www.w3.org/2000/svg" xmlns:xlink="http://www.w3.org/1999/xlink" version="1.1" width="400" height="400" viewBox="0 0 400 400" xml:space="preserve">
<desc>Created with Fabric.js 3.6.2</desc>
<defs>
</defs>
<g transform="matrix(8.33 0 0 8.33 200 200)" id="Christmas_Tree"  >
<polygon style="stroke: none; stroke-width: 1; stroke-dasharray: none; stroke-linecap: butt; stroke-dashoffset: 0; stroke-linejoin: miter; stroke-miterlimit: 4; fill: rgb(13,177,75); fill-rule: nonzero; opacity: 1;"  points="0,-8.5 -5.5,-2.5 -2.5,-2.5 -7,3 -4,3 -8.5,8.5 8.5,8.5 4,3 7,3 2.5,-2.5 5.5,-2.5 " />
</g>
<g transform="matrix(8.33 0 0 8.33 177.08 154.17)" id="Christmas_Tree"  >
<polygon style="stroke: none; stroke-width: 1; stroke-dasharray: none; stroke-linecap: butt; stroke-dashoffset: 0; stroke-linejoin: miter; stroke-miterlimit: 4; fill: rgb(255,255,255); fill-rule: nonzero; opacity: 0.2;"  points="2.75,-3 -2.75,3 -0.16,3 " />
</g>
<g transform="matrix(8.33 0 0 8.33 222.92 154.17)" id="Christmas_Tree"  >
<polygon style="stroke: none; stroke-width: 1; stroke-dasharray: none; stroke-linecap: butt; stroke-dashoffset: 0; stroke-linejoin: miter; stroke-miterlimit: 4; fill: rgb(0,0,0); fill-rule: nonzero; opacity: 0.1;"  points="2.75,3 -2.75,-3 0.16,3 " />
</g>
<g transform="matrix(8.33 0 0 8.33 159.08 225)" id="Christmas_Tree"  >
<polygon style="stroke: none; stroke-width: 1; stroke-dasharray: none; stroke-linecap: butt; stroke-dashoffset: 0; stroke-linejoin: miter; stroke-miterlimit: 4; fill: rgb(255,255,255); fill-rule: nonzero; opacity: 0.2;"  points="1.2,0 3.59,-5.5 2.41,-5.5 -2.09,0 0.91,0 -3.59,5.5 0.41,5.5 2.79,0 " />
</g>
<g transform="matrix(8.33 0 0 8.33 240.92 225)" id="Christmas_Tree"  >
<polygon style="stroke: none; stroke-width: 1; stroke-dasharray: none; stroke-linecap: butt; stroke-dashoffset: 0; stroke-linejoin: miter; stroke-miterlimit: 4; fill: rgb(0,0,0); fill-rule: nonzero; opacity: 0.1;"  points="-0.91,0 2.09,0 -2.41,-5.5 -3.59,-5.5 -1.2,0 -2.79,0 -0.41,5.5 3.59,5.5 " />
</g>
<g transform="matrix(8.33 0 0 8.33 195.83 166.67)" id="Christmas_Tree"  >
<circle style="stroke: none; stroke-width: 1; stroke-dasharray: none; stroke-linecap: butt; stroke-dashoffset: 0; stroke-linejoin: miter; stroke-miterlimit: 4; fill: rgb(255,207,1); fill-rule: nonzero; opacity: 1;"  cx="0" cy="0" r="1" />
</g>
<g transform="matrix(8.33 0 0 8.33 216.67 208.33)" id="Christmas_Tree"  >
<circle style="stroke: none; stroke-width: 1; stroke-dasharray: none; stroke-linecap: butt; stroke-dashoffset: 0; stroke-linejoin: miter; stroke-miterlimit: 4; fill: rgb(255,207,1); fill-rule: nonzero; opacity: 1;"  cx="0" cy="0" r="1" />
</g>
<g transform="matrix(8.33 0 0 8.33 183.33 241.67)" id="Christmas_Tree"  >
<circle style="stroke: none; stroke-width: 1; stroke-dasharray: none; stroke-linecap: butt; stroke-dashoffset: 0; stroke-linejoin: miter; stroke-miterlimit: 4; fill: rgb(255,207,1); fill-rule: nonzero; opacity: 1;"  cx="0" cy="0" r="1" />
</g>
<g transform="matrix(8.33 0 0 8.33 225 250)" id="Christmas_Tree"  >
<circle style="stroke: none; stroke-width: 1; stroke-dasharray: none; stroke-linecap: butt; stroke-dashoffset: 0; stroke-linejoin: miter; stroke-miterlimit: 4; fill: rgb(255,207,1); fill-rule: nonzero; opacity: 1;"  cx="0" cy="0" r="1" />
</g>
<g transform="matrix(8.33 0 0 8.33 200 283.33)" id="_Path_"  >
<path style="stroke: none; stroke-width: 1; stroke-dasharray: none; stroke-linecap: butt; stroke-dashoffset: 0; stroke-linejoin: miter; stroke-miterlimit: 4; fill: rgb(157,88,31); fill-rule: nonzero; opacity: 1;"  transform=" translate(-12, -22)" d="M 10.44 20.5 c -0.087 1.145 -0.601 2.216 -1.44 3 h 6 c -0.839 -0.784 -1.353 -1.855 -1.44 -3 H 10.44 z" stroke-linecap="round" />
</g>
<g transform="matrix(8.33 0 0 8.33 185.33 283.33)" id="Christmas_Tree"  >
<path style="stroke: none; stroke-width: 1; stroke-dasharray: none; stroke-linecap: butt; stroke-dashoffset: 0; stroke-linejoin: miter; stroke-miterlimit: 4; fill: rgb(255,255,255); fill-rule: nonzero; opacity: 0.2;"  transform=" translate(-10.24, -22)" d="M 10.44 20.5 c -0.087 1.145 -0.601 2.216 -1.44 3 h 2 c 0.312 -0.97 0.474 -1.981 0.48 -3 H 10.44 z" stroke-linecap="round" />
</g>
<g transform="matrix(8.33 0 0 8.33 215 283.33)" id="Christmas_Tree"  >
<path style="stroke: none; stroke-width: 1; stroke-dasharray: none; stroke-linecap: butt; stroke-dashoffset: 0; stroke-linejoin: miter; stroke-miterlimit: 4; fill: rgb(0,0,0); fill-rule: nonzero; opacity: 0.1;"  transform=" translate(-13.8, -22)" d="M 13.56 20.5 h -1 c 0.006 1.019 0.168 2.03 0.48 3 h 2 C 14.186 22.722 13.657 21.651 13.56 20.5 z" stroke-linecap="round" />
</g>
<g transform="matrix(8.33 0 0 8.33 200 124.75)" id="Christmas_Tree"  >
<polygon style="stroke: none; stroke-width: 1; stroke-dasharray: none; stroke-linecap: butt; stroke-dashoffset: 0; stroke-linejoin: miter; stroke-miterlimit: 4; fill: rgb(255,207,1); fill-rule: nonzero; opacity: 1;"  points="0,-2.47 0.8,-0.84 2.71,-0.44 1.3,0.68 1.6,2.47 0,1.62 -1.6,2.47 -1.3,0.68 -2.71,-0.44 -0.8,-0.84 " />
</g>
<g transform="matrix(8.33 0 0 8.33 200 200.09)" id="Christmas_Tree"  >
<path style="stroke: none; stroke-width: 1; stroke-dasharray: none; stroke-linecap: butt; stroke-dashoffset: 0; stroke-linejoin: miter; stroke-miterlimit: 4; fill: rgb(48,60,66); fill-rule: nonzero; opacity: 1;"  transform=" translate(-12, -12.01)" d="M 20.89 20.18 l -3.83 -4.68 H 19 c 0.276 0.003 0.503 -0.218 0.506 -0.494 c 0.001 -0.119 -0.04 -0.234 -0.116 -0.326 L 15.56 10 h 1.94 c 0.276 0.002 0.502 -0.22 0.503 -0.497 c 0.001 -0.127 -0.047 -0.25 -0.133 -0.343 L 14 5 l -0.19 -1.12 L 15 2.92 c 0.235 -0.145 0.308 -0.453 0.162 -0.688 C 15.085 2.106 14.956 2.021 14.81 2 l -1.67 -0.36 l -0.69 -1.36 c -0.144 -0.249 -0.462 -0.333 -0.711 -0.189 c -0.079 0.046 -0.144 0.111 -0.189 0.189 l -0.69 1.41 L 9.19 2 C 8.917 2.04 8.728 2.294 8.768 2.568 C 8.79 2.713 8.875 2.842 9 2.92 l 1.18 0.93 L 10 5 L 6.13 9.16 C 5.942 9.362 5.954 9.679 6.157 9.867 C 6.25 9.953 6.373 10.001 6.5 10 h 1.94 l -3.83 4.68 c -0.177 0.212 -0.148 0.527 0.064 0.704 C 4.766 15.46 4.881 15.501 5 15.5 h 1.94 l -3.83 4.68 c -0.177 0.212 -0.148 0.527 0.064 0.704 C 3.266 20.96 3.381 21.001 3.5 21 h 6.33 c -0.13 0.807 -0.528 1.547 -1.13 2.1 c -0.221 0.166 -0.266 0.479 -0.1 0.7 C 8.694 23.926 8.843 24 9 24 h 6 c 0.276 0 0.5 -0.224 0.5 -0.5 c 0 -0.157 -0.074 -0.306 -0.2 -0.4 c -0.602 -0.553 -1 -1.293 -1.13 -2.1 h 6.33 c 0.276 0.003 0.503 -0.218 0.506 -0.494 C 21.007 20.387 20.966 20.271 20.89 20.18 z M 11.3 2.61 c 0.149 -0.034 0.274 -0.133 0.34 -0.27 L 12 1.63 l 0.35 0.72 c 0.066 0.137 0.191 0.236 0.34 0.27 l 0.87 0.19 L 13 3.26 c -0.144 0.115 -0.213 0.299 -0.18 0.48 l 0.13 0.79 l -0.71 -0.37 c -0.144 -0.075 -0.316 -0.075 -0.46 0 l -0.71 0.37 l 0.13 -0.79 c 0.028 -0.185 -0.049 -0.37 -0.2 -0.48 L 10.42 2.8 L 11.3 2.61 z M 13.89 23 h -3.78 c 0.369 -0.616 0.623 -1.293 0.75 -2 h 2.26 C 13.253 21.708 13.514 22.386 13.89 23 z M 4.56 20 l 3.83 -4.68 c 0.177 -0.212 0.148 -0.527 -0.064 -0.704 C 8.234 14.54 8.119 14.499 8 14.5 H 6.06 l 3.83 -4.68 c 0.177 -0.212 0.148 -0.527 -0.064 -0.704 C 9.734 9.04 9.619 8.999 9.5 9 H 7.64 l 2.83 -3.09 c 0.053 0.009 0.107 0.009 0.16 0 L 12 5.16 l 1.37 0.72 c 0.056 0.01 0.114 0.01 0.17 0 L 16.36 9 H 14.5 c -0.276 -0.003 -0.503 0.218 -0.506 0.494 c -0.001 0.119 0.04 0.234 0.116 0.326 l 3.83 4.68 H 16 c -0.276 -0.003 -0.503 0.218 -0.506 0.494 c -0.001 0.119 0.04 0.234 0.116 0.326 L 19.44 20 H 4.56 z" stroke-linecap="round" />
</g>
<g transform="matrix(8.33 0 0 8.33 200 200.09)" id="Christmas_Tree"  >
<linearGradient id="SVGID_SVGID_1__1" gradientUnits="userSpaceOnUse" gradientTransform="matrix(1 0 0 -1 0 24)"  x1="5.4202" y1="14.3604" x2="22.4202" y2="6.4304">
<stop offset="0%" style="stop-color:rgb(255,255,255);stop-opacity: 0.2"/>
<stop offset="100%" style="stop-color:rgb(255,255,255);stop-opacity: 0"/>
</linearGradient>
<path style="stroke: none; stroke-width: 1; stroke-dasharray: none; stroke-linecap: butt; stroke-dashoffset: 0; stroke-linejoin: miter; stroke-miterlimit: 4; fill: url(#SVGID_SVGID_1__1); fill-rule: nonzero; opacity: 1;"  transform=" translate(-12, -12.01)" d="M 20.89 20.18 l -3.83 -4.68 H 19 c 0.276 0.003 0.503 -0.218 0.506 -0.494 c 0.001 -0.119 -0.04 -0.234 -0.116 -0.326 L 15.56 10 h 1.94 c 0.276 0.002 0.502 -0.22 0.503 -0.497 c 0.001 -0.127 -0.047 -0.25 -0.133 -0.343 L 14 5 l -0.19 -1.12 L 15 2.92 c 0.235 -0.145 0.308 -0.453 0.162 -0.688 C 15.085 2.106 14.956 2.021 14.81 2 l -1.67 -0.36 l -0.69 -1.36 c -0.144 -0.249 -0.462 -0.333 -0.711 -0.189 c -0.079 0.046 -0.144 0.111 -0.189 0.189 l -0.69 1.41 L 9.19 2 C 8.917 2.04 8.728 2.294 8.768 2.568 C 8.79 2.713 8.875 2.842 9 2.92 l 1.18 0.93 L 10 5 L 6.13 9.16 C 5.942 9.362 5.954 9.679 6.157 9.867 C 6.25 9.953 6.373 10.001 6.5 10 h 1.94 l -3.83 4.68 c -0.177 0.212 -0.148 0.527 0.064 0.704 C 4.766 15.46 4.881 15.501 5 15.5 h 1.94 l -3.83 4.68 c -0.177 0.212 -0.148 0.527 0.064 0.704 C 3.266 20.96 3.381 21.001 3.5 21 h 6.33 c -0.13 0.807 -0.528 1.547 -1.13 2.1 c -0.221 0.166 -0.266 0.479 -0.1 0.7 C 8.694 23.926 8.843 24 9 24 h 6 c 0.276 0 0.5 -0.224 0.5 -0.5 c 0 -0.157 -0.074 -0.306 -0.2 -0.4 c -0.602 -0.553 -1 -1.293 -1.13 -2.1 h 6.33 c 0.276 0.003 0.503 -0.218 0.506 -0.494 C 21.007 20.387 20.966 20.271 20.89 20.18 z" stroke-linecap="round" />
</g>
</svg>